<svg width="16" height="16" viewBox="0 0 16 16" fill="none" xmlns="http://www.w3.org/2000/svg">
<g clip-path="url(#clip0_19146_58)">
<path d="M4.66683 7.33333L7.3335 1.33333C7.86393 1.33333 8.37264 1.54405 8.74771 1.91912C9.12278 2.29419 9.3335 2.8029 9.3335 3.33333V6H13.1068C13.3001 5.99781 13.4915 6.03767 13.6679 6.11681C13.8442 6.19595 14.0012 6.31249 14.1281 6.45834C14.2549 6.6042 14.3485 6.77588 14.4024 6.9615C14.4563 7.14712 14.4692 7.34224 14.4402 7.53333L13.5202 13.5333C13.4719 13.8513 13.3105 14.1411 13.0654 14.3493C12.8204 14.5576 12.5084 14.6703 12.1868 14.6667H4.66683M4.66683 7.33333V14.6667M4.66683 7.33333H2.66683C2.31321 7.33333 1.97407 7.47381 1.72402 7.72386C1.47397 7.97391 1.3335 8.31304 1.3335 8.66667V13.3333C1.3335 13.687 1.47397 14.0261 1.72402 14.2761C1.97407 14.5262 2.31321 14.6667 2.66683 14.6667H4.66683" stroke="#1A1F45" stroke-opacity="0.5" stroke-width="1.5" stroke-linecap="round" stroke-linejoin="round"/>
</g>
<defs>
<clipPath id="clip0_19146_58">
<rect width="16" height="16" fill="white"/>
</clipPath>
</defs>
</svg>
